<svg version="1.1" id="Layer_1" xmlns="http://www.w3.org/2000/svg" xmlns:xlink="http://www.w3.org/1999/xlink" x="0px" y="0px"
	 width="100%" viewBox="0 0 496 496" enable-background="new 0 0 496 496" xml:space="preserve">
<path fill="#A18700" opacity="1.000000" stroke="none" 
	d="
M215.325912,358.933777 
	C179.460922,349.656860 157.115433,326.427155 143.699295,293.177124 
	C131.479584,262.892273 131.370789,233.054504 147.317047,204.318909 
	C163.440613,175.263794 188.672684,158.490479 221.597397,153.621552 
	C244.881699,150.178253 266.945587,154.278412 287.798889,165.075302 
	C289.180481,165.790619 291.072754,166.040466 291.659424,169.294998 
	C277.212219,162.284180 263.047363,156.794022 247.541809,155.099457 
	C231.789093,153.377884 216.948120,155.318771 201.172470,162.536774 
	C204.913010,162.902344 207.769257,162.755630 206.133331,167.020248 
	C237.332169,157.526978 266.765533,160.047501 293.438873,177.676529 
	C319.653351,195.002304 333.162872,220.667130 336.089325,252.915924 
	C338.545654,249.972519 336.159485,247.823730 337.214935,245.775864 
	C339.001617,246.513947 339.040558,248.147598 339.210846,249.651550 
	C345.559265,305.716583 309.956116,347.136353 265.175812,358.571899 
	C248.788589,362.756744 232.244110,362.509430 215.325912,358.933777 
M322.259735,217.596680 
	C319.535034,211.403748 316.682587,205.309921 310.222473,201.951782 
	C312.395996,207.372116 315.191895,212.417877 317.626373,217.632401 
	C322.512024,228.097290 322.877625,230.253769 321.129181,234.166595 
	C319.310425,233.413223 319.177032,231.661407 318.667664,230.115326 
	C307.135895,195.114868 270.967834,164.465591 226.145554,172.817932 
	C193.928436,178.821396 170.617844,196.031311 158.218338,226.674591 
	C156.028519,232.086365 150.888977,237.898270 156.038940,244.542389 
	C156.278137,244.850998 156.146118,245.531921 156.043106,246.008331 
	C154.823303,251.648758 155.625931,257.219391 156.223480,262.869598 
	C157.369690,273.707916 161.576538,283.316406 166.631149,292.793488 
	C171.572601,302.058380 179.483856,309.140747 186.536072,316.082489 
	C197.033798,326.415741 211.810562,330.334473 226.951035,330.689972 
	C228.638763,330.729584 230.569229,330.251129 232.668121,332.884888 
	C226.050323,333.358307 220.438354,332.557404 214.892441,331.445404 
	C209.438217,330.351776 204.051926,328.919281 198.635834,327.635468 
	C213.329575,336.607910 229.615616,338.565765 245.882858,336.289429 
	C277.019745,331.932281 299.424652,314.594208 313.874512,286.515198 
	C312.297668,296.117188 306.872192,303.739319 301.258850,312.521301 
	C309.423096,306.385254 312.932800,298.088318 318.536346,291.373749 
	C318.881989,297.365356 314.271606,301.428314 313.076660,306.729401 
	C326.294800,291.315887 328.990906,272.552460 329.573914,253.011597 
	C330.924469,256.349945 331.054169,259.725372 333.085388,262.896667 
	C335.414917,260.395203 334.181976,257.874664 334.322754,255.544922 
	C334.469757,253.111557 331.257202,251.999908 331.793121,249.864426 
	C333.103760,244.641586 330.942413,239.972275 329.800415,235.220596 
	C328.346588,229.171356 326.836029,223.006134 322.259735,217.596680 
M259.931122,349.332336 
	C282.515106,343.739258 300.783234,331.866760 313.727417,312.114960 
	C292.235718,339.336426 263.808990,351.076874 229.513306,350.057739 
	C239.537033,351.322327 249.364624,352.154999 259.931122,349.332336 
M303.627319,317.176361 
	C301.382721,319.570190 299.138153,321.963989 295.967316,325.345581 
	C302.562775,321.877991 305.693848,317.106140 308.483307,311.999664 
	C307.027863,313.557739 305.572388,315.115845 303.627319,317.176361 
z"/>
<path fill="#A18700" opacity="1.000000" stroke="none" 
	d="
M229.154053,256.121368 
	C228.200592,257.425049 227.487686,258.509888 226.934631,259.351471 
	C227.381973,261.385254 229.764130,259.926636 230.125702,262.507111 
	C225.603500,264.804840 224.852478,269.269287 225.172501,274.233276 
	C225.262833,275.634644 224.461426,276.910126 222.788101,276.836487 
	C221.290970,276.770569 220.009979,275.616364 220.095917,274.330719 
	C220.479721,268.589081 217.543854,263.026978 219.385254,257.210388 
	C220.753494,252.888458 220.780930,248.391006 220.696548,243.880737 
	C220.561676,236.673584 222.276367,235.206741 229.010635,237.188385 
	C231.989166,238.064865 234.657867,239.900085 237.745529,240.720764 
	C239.257950,241.122757 240.564529,242.755447 239.814392,244.203629 
	C236.614197,250.381714 242.038757,254.223251 243.357819,259.191132 
	C245.224869,253.461868 244.526367,247.663666 244.602356,241.912964 
	C244.628632,239.923843 243.270752,239.061829 241.798111,238.160660 
	C240.055923,237.094528 239.326431,235.424545 239.951431,233.446442 
	C240.503174,231.700287 241.822006,230.675095 243.718903,230.796295 
	C245.820892,230.930573 246.881119,232.300827 247.513596,234.207169 
	C248.613708,237.523132 249.519226,240.794418 249.383514,244.399063 
	C249.058533,253.031784 249.617981,261.696472 248.414642,270.298523 
	C248.254166,271.445709 248.215057,272.635193 247.868393,273.725128 
	C247.352631,275.346802 246.506531,276.949463 244.554581,277.006195 
	C242.712265,277.059753 242.212219,275.424652 241.680084,274.018127 
	C239.740158,268.890411 237.854416,263.741638 235.854309,258.637604 
	C235.197830,256.962372 234.255768,255.399063 233.528656,253.952408 
	C231.403503,253.604004 230.552292,255.046555 229.154053,256.121368 
z"/>
</svg>